<svg width="2000" height="2000" viewBox="0 0 2000 2000" fill="none" xmlns="http://www.w3.org/2000/svg">
<g clip-path="url(#clip0_27_229)">
<rect width="2000" height="2000" fill="white"/>
<mask id="mask0_27_229" style="mask-type:luminance" maskUnits="userSpaceOnUse" x="0" y="0" width="2000" height="2000">
<path d="M2000 0H0V2000H2000V0Z" fill="white"/>
</mask>
<g mask="url(#mask0_27_229)">
<path d="M1864 1536.25C1864 1536.25 1646.25 1523 1643.25 1479.75C1640.25 1436.5 1864.25 1421.5 1878.25 1451.5C1892.25 1481.5 1657.75 1487.5 1546.25 1475C1434.75 1462.5 1381.75 1444.5 1382.75 1416.75C1383.75 1389 1520.5 1358.5 1609 1354.5C1697.5 1350.5 1819.25 1347.62 1821.38 1374.38C1823.5 1401.12 1582.5 1422.25 1529.75 1341C1403 1174.5 1696.5 1127 1224.5 887" stroke="#FB396D" stroke-width="7"/>
<path d="M1186 837.25C1070 747.5 1066.73 802.079 1002.23 818.829" stroke="#FB396D" stroke-width="7"/>
<path d="M706.136 812.237C772.299 841.713 818.219 908.261 817.696 985.325C816.991 1089.15 732.252 1172.75 628.424 1172.05C524.596 1171.34 441 1086.6 441.704 982.774C441.925 950.183 454.842 921.593 465.2 892.961C478.565 856.021 483.847 814.556 598.335 708.263C611.577 695.969 625.919 681.434 636.227 691.224C645.627 700.151 625.332 713.497 628.908 717.498C661.76 754.262 698.091 808.654 706.136 812.237Z" fill="#00C1EB"/>
<path d="M998.404 848.05C994.322 843.882 983.678 845.648 972.514 861.533C934.518 909.394 932.021 957.621 941.938 965.724C970.637 995.021 1032.62 996.661 1050.25 935.839C1037.65 896.707 1027.39 898.351 994.443 868.51C1001.55 858.583 1002.49 852.217 998.404 848.05Z" fill="#00C1EB"/>
<path d="M994.129 793.294C985.158 791.052 965.075 794.293 944.709 804.033C938.361 808.026 939.06 811.721 941.688 813.316C944.317 814.912 944.953 817.849 942.608 818.911C940.264 819.972 922.78 826.688 922.78 826.688C922.78 826.688 919.09 831.903 925.154 832.903C932.376 830.486 944.568 825.593 944.568 825.593L954.123 848.202L933.445 857.164C933.445 857.164 930.482 862.689 935.923 863.638C942.937 860.703 956.321 855.03 956.321 855.03C956.321 855.03 960.202 853.593 959.409 858.67C958.615 863.747 963.035 871.008 975.391 864.122C987.746 857.236 1005.93 854.215 1016.77 833.659C1018.84 828.311 1020.13 797.437 994.129 793.294Z" fill="#F9396A"/>
<path d="M1361.09 694.986C1163.67 650.057 1119.15 818.197 1101.44 879.497C1083.35 887.288 1011.57 917.606 870.742 895.331C818.904 887.132 776.901 868.619 741.846 843.709C693.868 809.617 507.781 760.125 449.336 927.961C390.892 1095.8 430.036 1472.77 942.002 1478.69C1453.97 1484.61 1517.39 1102.32 1518.86 975.329C1520.33 848.338 1483.78 722.907 1361.09 694.986Z" fill="#00C1EB"/>
<path d="M1403.81 622.913C1373.8 615.109 1329.48 714.967 1339.54 732.848C1349.6 750.729 1449.16 749.703 1449.16 749.703C1449.16 749.703 1433.81 630.718 1403.81 622.913Z" fill="#00C1EB"/>
<path d="M1254.96 625.722C1225.11 630.369 1205.17 743.631 1205.17 743.631C1205.17 743.631 1331.94 762.005 1323.46 744.671C1314.97 727.338 1284.8 621.074 1254.96 625.722Z" fill="#00C1EB"/>
<path d="M125.5 1527.5C125.5 1527.5 173.5 1496 235 1496C296.5 1496 446.5 1502.5 493.5 1496C540.5 1489.5 566.5 1478.5 567.5 1457.5C568.5 1436.5 509 1387 365.5 1406.5C320.5 1420 330.5 1445.5 382 1447.5C433.5 1449.5 542.5 1453.5 519.5 1400.5C496.5 1347.5 406.5 1220 398 1119C389.5 1018 406.618 837.743 651 771C889 706 902.5 706 902.5 706" stroke="#FB396D" stroke-width="7" stroke-linecap="round"/>
<path d="M223.336 1321.25C177.971 1301.44 111.538 1291.48 91.6397 1349.35C71.7416 1407.21 107.959 1448.46 171.855 1463.9C235.75 1479.34 302.279 1475.3 344.881 1460.59C406.017 1441.01 463.284 1402.4 491.379 1388.59C519.475 1374.79 576.152 1349.17 623.5 1371.5C636.617 1354.59 615.675 1345.95 593.21 1340.79C570.745 1335.64 546.332 1322.97 478.672 1346C411.012 1369.04 369.827 1395.76 327.9 1384.97C285.974 1374.18 268.701 1341.06 223.336 1321.25Z" fill="#00C1EB"/>
<path d="M937.625 661.5C932.125 661.5 893.125 669.375 885.5 685.25C882.625 690 877 696.5 880.75 710.75C884.5 725 895.75 729.5 899.75 731.25C904.75 733.5 930.5 735.75 954.75 726.25C958 721.75 956.25 718.625 956.25 718.625L945.25 667C945.25 667 943.125 661.5 937.625 661.5Z" fill="#F9396A"/>
<path d="M1294.94 855.879C1331.63 870.369 1373.13 892.413 1450.82 887.342" stroke="#140D4D" stroke-width="10" stroke-linecap="round"/>
<path d="M1311.5 841.028C1311.5 841.028 1364.68 856.264 1478.63 835.602" stroke="#140D4D" stroke-width="10" stroke-linecap="round"/>
<path d="M1152.67 807.401C1124.7 800.608 1093.94 792.498 1059.59 762.53" stroke="#140D4D" stroke-width="10" stroke-linecap="round"/>
<path d="M1148.94 788.337C1111.63 769.506 1084.22 748.297 1064.47 715.35" stroke="#140D4D" stroke-width="10" stroke-linecap="round"/>
<path d="M1178.7 816.154C1178.7 816.154 1185.84 851.893 1212.68 817.714C1212.74 845.252 1223.57 858.921 1249.66 845.925" stroke="#140D4D" stroke-width="10" stroke-miterlimit="1" stroke-linecap="round"/>
<path d="M1225.38 793.112C1218.24 789.865 1208.22 787.252 1204.88 793.215C1200.77 800.553 1201.32 812.898 1211.73 817.501C1221.67 821.9 1233.05 815.402 1237.57 807.325C1240.62 801.88 1230.86 795.603 1225.38 793.112Z" fill="#140D4D"/>
<path d="M1225.38 793.112C1218.24 789.865 1208.22 787.252 1204.88 793.215C1200.77 800.553 1201.32 812.898 1211.73 817.501C1221.67 821.9 1233.05 815.402 1237.57 807.325C1240.62 801.88 1230.86 795.603 1225.38 793.112Z" stroke="#140D4D" stroke-width="5"/>
<path d="M1163.34 780.589C1164.78 784.181 1167.66 791.366 1172.42 793.774C1177.46 796.319 1186.21 796.311 1190.17 795.45" stroke="#140D4D" stroke-width="10" stroke-linecap="round"/>
<path d="M1263.51 822.322C1265.73 825.495 1273.46 834.153 1278.64 835.419C1284.12 836.757 1294.31 835.362 1297.98 833.625" stroke="#140D4D" stroke-width="10" stroke-linecap="round"/>
<path d="M549.8 916.526C549.8 916.526 590.991 839.09 712.701 810.812C732.17 760.105 754.77 721.866 803.406 686.854C819.9 674.305 833.761 672.91 836.041 675.761C839.574 680.179 833.449 696.726 827.574 702.726C885.466 787.499 951.768 911.31 890.311 1106.47" fill="#00C1EB"/>
<path d="M549.8 916.526C549.8 916.526 590.991 839.09 712.701 810.812C732.17 760.105 754.77 721.866 803.406 686.854C819.9 674.305 833.761 672.91 836.041 675.761C839.574 680.179 833.449 696.726 827.574 702.726C885.466 787.499 951.768 911.31 890.311 1106.47" stroke="#140D4D" stroke-width="10"/>
<path d="M1037.52 1114.03C1037.27 998.708 1033.66 925.052 1090.49 846.355C1107.27 822.637 1117.88 819.23 1121.75 823.358C1125.62 827.486 1124.22 836.07 1121.56 844.613C1221.12 913.631 1285.67 974.759 1315.93 1075.29" fill="#00C1EB"/>
<path d="M1037.52 1114.03C1037.27 998.708 1033.66 925.052 1090.49 846.355C1107.27 822.637 1117.88 819.23 1121.75 823.358C1125.62 827.486 1124.22 836.07 1121.56 844.613C1221.12 913.631 1285.67 974.759 1315.93 1075.29" stroke="#140D4D" stroke-width="10"/>
</g>
</g>
<defs>
<clipPath id="clip0_27_229">
<rect width="2000" height="2000" fill="white"/>
</clipPath>
</defs>
</svg>
